<svg width="19" height="20" viewBox="0 0 19 20" fill="none" xmlns="http://www.w3.org/2000/svg">
<path d="M16.5 2H12.32C11.9 0.84 10.8 0 9.5 0C8.2 0 7.1 0.84 6.68 2H2.5C1.4 2 0.5 2.9 0.5 4V18C0.5 19.1 1.4 20 2.5 20H16.5C17.6 20 18.5 19.1 18.5 18V4C18.5 2.9 17.6 2 16.5 2ZM9.5 2C10.05 2 10.5 2.45 10.5 3C10.5 3.55 10.05 4 9.5 4C8.95 4 8.5 3.55 8.5 3C8.5 2.45 8.95 2 9.5 2ZM9.5 6C11.16 6 12.5 7.34 12.5 9C12.5 10.66 11.16 12 9.5 12C7.84 12 6.5 10.66 6.5 9C6.5 7.34 7.84 6 9.5 6ZM15.5 18H3.5V16.6C3.5 14.6 7.5 13.5 9.5 13.5C11.5 13.5 15.5 14.6 15.5 16.6V18Z" fill="#45556E"/>
</svg>
