<svg width="16" height="18" viewBox="0 0 16 18" fill="none" xmlns="http://www.w3.org/2000/svg">
<g clip-path="url(#clip0_48_29)">
<path fill-rule="evenodd" clip-rule="evenodd" d="M3.83333 1.66683C3.83333 1.20659 4.20643 0.833496 4.66667 0.833496C5.1269 0.833496 5.5 1.20659 5.5 1.66683V2.50016H10.5V1.66683C10.5 1.20659 10.8731 0.833496 11.3333 0.833496C11.7936 0.833496 12.1667 1.20659 12.1667 1.66683V2.50016C14.0076 2.50016 15.5 3.99255 15.5 5.8335V14.1668C15.5 16.0078 14.0076 17.5002 12.1667 17.5002H3.83333C1.99238 17.5002 0.5 16.0078 0.5 14.1668V5.8335C0.5 3.99255 1.99238 2.50016 3.83333 2.50016V1.66683ZM10.5 4.16683C10.5 4.62707 10.8731 5.00016 11.3333 5.00016C11.7936 5.00016 12.1667 4.62707 12.1667 4.16683L12.2911 4.1714C13.1534 4.23503 13.8333 4.95486 13.8333 5.8335V6.66683H2.16667V5.8335L2.17124 5.70911C2.23486 4.84673 2.9547 4.16683 3.83333 4.16683C3.83333 4.62707 4.20643 5.00016 4.66667 5.00016C5.1269 5.00016 5.5 4.62707 5.5 4.16683H10.5Z" fill="#F57156"/>
</g>
<defs>
<clipPath id="clip0_48_29">
<rect width="16" height="18" fill="white"/>
</clipPath>
</defs>
</svg>
