<svg width="20" height="20" viewBox="0 0 20 20" fill="none" xmlns="http://www.w3.org/2000/svg">
<g clip-path="url(#clip0_48_6)">
<path d="M6.24988 10C6.24988 10.3315 6.11818 10.6495 5.88376 10.8839C5.64934 11.1183 5.3314 11.25 4.99988 11.25C4.66836 11.25 4.35041 11.1183 4.11599 10.8839C3.88157 10.6495 3.74988 10.3315 3.74988 10C3.74988 9.66848 3.88157 9.35054 4.11599 9.11612C4.35041 8.8817 4.66836 8.75 4.99988 8.75C5.3314 8.75 5.64934 8.8817 5.88376 9.11612C6.11818 9.35054 6.24988 9.66848 6.24988 10ZM11.2499 10C11.2499 10.3315 11.1182 10.6495 10.8838 10.8839C10.6493 11.1183 10.3314 11.25 9.99988 11.25C9.66836 11.25 9.35042 11.1183 9.11599 10.8839C8.88157 10.6495 8.74988 10.3315 8.74988 10C8.74988 9.66848 8.88157 9.35054 9.11599 9.11612C9.35042 8.8817 9.66836 8.75 9.99988 8.75C10.3314 8.75 10.6493 8.8817 10.8838 9.11612C11.1182 9.35054 11.2499 9.66848 11.2499 10ZM14.9999 11.25C15.3314 11.25 15.6493 11.1183 15.8838 10.8839C16.1182 10.6495 16.2499 10.3315 16.2499 10C16.2499 9.66848 16.1182 9.35054 15.8838 9.11612C15.6493 8.8817 15.3314 8.75 14.9999 8.75C14.6684 8.75 14.3504 8.8817 14.116 9.11612C13.8816 9.35054 13.7499 9.66848 13.7499 10C13.7499 10.3315 13.8816 10.6495 14.116 10.8839C14.3504 11.1183 14.6684 11.25 14.9999 11.25Z" fill="#C8D0DD"/>
<path d="M2.70613 19.7537L2.73113 19.7487C5.01863 19.295 6.41613 18.6963 7.06613 18.3675C8.02294 18.6236 9.00939 18.7522 9.99988 18.75C15.5224 18.75 19.9999 14.8325 19.9999 10C19.9999 5.1675 15.5224 1.25 9.99988 1.25C4.47738 1.25 -0.00012207 5.1675 -0.00012207 10C-0.00012207 12.2 0.928628 14.2125 2.46238 15.75C2.35547 16.7377 2.13571 17.7099 1.80738 18.6475L1.80363 18.6612C1.71022 18.9298 1.6085 19.1953 1.49863 19.4575C1.39988 19.69 1.59113 19.95 1.83988 19.91C2.12944 19.8625 2.41823 19.8105 2.70613 19.7537ZM3.70613 15.8687C3.72364 15.6857 3.70056 15.5011 3.63856 15.3281C3.57655 15.155 3.47712 14.9977 3.34738 14.8675C2.02238 13.5375 1.24988 11.835 1.24988 10C1.24988 6.01 5.00488 2.5 9.99988 2.5C14.9949 2.5 18.7499 6.01 18.7499 10C18.7499 13.99 14.9949 17.5 9.99988 17.5C9.1187 17.5022 8.2411 17.3878 7.38988 17.16C7.09235 17.0803 6.77586 17.1132 6.50113 17.2525C6.01738 17.4975 4.95113 17.965 3.20863 18.3687C3.45151 17.5526 3.61806 16.7157 3.70613 15.8687Z" fill="#C8D0DD"/>
</g>
<defs>
<clipPath id="clip0_48_6">
<rect width="20" height="20" fill="white"/>
</clipPath>
</defs>
</svg>
