<svg width="24" height="24" viewBox="0 0 24 24" fill="none" xmlns="http://www.w3.org/2000/svg">
<path d="M22 12C22 17.5228 17.5228 22 12 22C6.47715 22 2 17.5228 2 12C2 6.47715 6.47715 2 12 2C17.5228 2 22 6.47715 22 12Z" fill="#F65160"/>
<path fill-rule="evenodd" clip-rule="evenodd" d="M16.0535 15.349C16.292 15.1232 16.2916 14.7434 16.0526 14.5181L13.1162 11.751L16.0517 8.9848C16.2907 8.75956 16.2911 8.37967 16.0526 8.15391L16.0199 8.12295C15.7999 7.91473 15.4556 7.91436 15.2352 8.1221L12.2502 10.935L9.26454 8.12138C9.0441 7.91364 8.69984 7.91401 8.47985 8.12223L8.44714 8.15319C8.20861 8.37895 8.20902 8.75884 8.44804 8.98408L11.3843 11.751L8.44711 14.5188C8.20809 14.7441 8.20768 15.124 8.44621 15.3497L8.47892 15.3807C8.69892 15.5889 9.04317 15.5893 9.26362 15.3815L12.2502 12.5671L15.2361 15.3808C15.4566 15.5886 15.8008 15.5882 16.0208 15.38L16.0535 15.349Z" fill="white"/>
</svg>
