<svg width="49" height="49" viewBox="0 0 49 49" fill="none" xmlns="http://www.w3.org/2000/svg">
<g filter="url(#filter0_d_46_2585)">
<circle cx="24" cy="22" r="18" fill="white"/>
</g>
<path d="M17.471 20.8528H14.2941V17.2941H17.471C17.6427 17.2941 17.8072 17.2259 17.9286 17.1046C18.0499 16.9832 18.1181 16.8186 18.1181 16.647C18.1181 16.4754 18.0499 16.3109 17.9286 16.1895C17.8072 16.0682 17.6427 16 17.471 16H13.647C13.4754 16 13.3109 16.0682 13.1895 16.1895C13.0682 16.3109 13 16.4754 13 16.647V26.3526C13 26.5243 13.0682 26.6888 13.1895 26.8102C13.3109 26.9315 13.4754 26.9997 13.647 26.9997C13.8186 26.9997 13.9832 26.9315 14.1046 26.8102C14.2259 26.6888 14.2941 26.5243 14.2941 26.3526V22.1469H17.471C17.6427 22.1469 17.8072 22.0787 17.9286 21.9574C18.0499 21.836 18.1181 21.6714 18.1181 21.4998C18.1181 21.3282 18.0499 21.1637 17.9286 21.0423C17.8072 20.921 17.6427 20.8528 17.471 20.8528Z" fill="#45556E"/>
<path d="M17.471 20.8528H14.2941V17.2941H17.471C17.6427 17.2941 17.8072 17.2259 17.9286 17.1046C18.0499 16.9832 18.1181 16.8186 18.1181 16.647C18.1181 16.4754 18.0499 16.3109 17.9286 16.1895C17.8072 16.0682 17.6427 16 17.471 16H13.647C13.4754 16 13.3109 16.0682 13.1895 16.1895C13.0682 16.3109 13 16.4754 13 16.647V26.3526C13 26.5243 13.0682 26.6888 13.1895 26.8102C13.3109 26.9315 13.4754 26.9997 13.647 26.9997C13.8186 26.9997 13.9832 26.9315 14.1046 26.8102C14.2259 26.6888 14.2941 26.5243 14.2941 26.3526V22.1469H17.471C17.6427 22.1469 17.8072 22.0787 17.9286 21.9574C18.0499 21.836 18.1181 21.6714 18.1181 21.4998C18.1181 21.3282 18.0499 21.1637 17.9286 21.0423C17.8072 20.921 17.6427 20.8528 17.471 20.8528Z" stroke="#45556E"/>
<path d="M23.4255 16.445C23.383 16.3155 23.3006 16.2028 23.1903 16.1229C23.0799 16.043 22.9471 16 22.8108 16C22.6746 16 22.5418 16.043 22.4314 16.1229C22.321 16.2028 22.2387 16.3155 22.1961 16.445L19.0095 26.1506C18.9597 26.3126 18.9755 26.4877 19.0535 26.6381C19.1314 26.7886 19.2653 26.9025 19.4263 26.9553C19.5873 27.0082 19.7626 26.9957 19.9146 26.9206C20.0665 26.8456 20.183 26.7139 20.2388 26.5539L21.2396 23.5085H24.3831L25.3828 26.5539C25.4387 26.7139 25.5551 26.8456 25.7071 26.9206C25.859 26.9957 26.0343 27.0082 26.1953 26.9553C26.3564 26.9025 26.4902 26.7886 26.5682 26.6381C26.6461 26.4877 26.6619 26.3126 26.6122 26.1506L23.4255 16.445ZM21.6645 22.2144L22.8108 18.7204L23.9582 22.2144H21.6645Z" fill="#45556E"/>
<path d="M23.4255 16.445C23.383 16.3155 23.3006 16.2028 23.1903 16.1229C23.0799 16.043 22.9471 16 22.8108 16C22.6746 16 22.5418 16.043 22.4314 16.1229C22.321 16.2028 22.2387 16.3155 22.1961 16.445L19.0095 26.1506C18.9597 26.3126 18.9755 26.4877 19.0535 26.6381C19.1314 26.7886 19.2653 26.9025 19.4263 26.9553C19.5873 27.0082 19.7626 26.9957 19.9146 26.9206C20.0665 26.8456 20.183 26.7139 20.2388 26.5539L21.2396 23.5085H24.3831L25.3828 26.5539C25.4387 26.7139 25.5551 26.8456 25.7071 26.9206C25.859 26.9957 26.0343 27.0082 26.1953 26.9553C26.3564 26.9025 26.4902 26.7886 26.5682 26.6381C26.6461 26.4877 26.6619 26.3126 26.6122 26.1506L23.4255 16.445ZM21.6645 22.2144L22.8108 18.7204L23.9582 22.2144H21.6645Z" stroke="#45556E"/>
<path d="M33.7035 17.152C33.4227 16.7932 33.064 16.5029 32.6544 16.3033C32.2449 16.1037 31.7952 16 31.3396 16C30.884 16 30.4344 16.1037 30.0248 16.3033C29.6152 16.5029 29.2565 16.7932 28.9758 17.152C27.982 18.3793 27.4606 19.9217 27.5059 21.5002C27.4606 23.0786 27.982 24.6211 28.9758 25.8483C29.2647 26.1979 29.6252 26.4815 30.0329 26.6802C30.4407 26.8788 30.8862 26.9879 31.3396 27C32.1112 26.9869 32.8492 26.6825 33.4058 26.1481L34.069 26.8102C34.1917 26.9245 34.3539 26.9867 34.5216 26.9838C34.6892 26.9808 34.8491 26.9129 34.9677 26.7943C35.0862 26.6758 35.1541 26.5159 35.1571 26.3482C35.16 26.1806 35.0978 26.0184 34.9835 25.8957L34.2286 25.1408C34.8663 24.0348 35.1928 22.7767 35.1733 21.5002C35.2186 19.9217 34.6972 18.3793 33.7035 17.152ZM33.2775 24.1897L32.5571 23.4693C32.4345 23.355 32.2722 23.2928 32.1046 23.2958C31.937 23.2987 31.777 23.3666 31.6585 23.4852C31.5399 23.6037 31.472 23.7637 31.4691 23.9313C31.4661 24.0989 31.5283 24.2611 31.6426 24.3838L32.4892 25.2314C32.1771 25.5251 31.768 25.6939 31.3396 25.7059C31.068 25.6924 30.8025 25.621 30.5607 25.4966C30.319 25.3722 30.1065 25.1976 29.9377 24.9845C29.156 23.9954 28.7526 22.76 28.8 21.5002C28.7532 20.2401 29.1574 19.0046 29.9398 18.0158C30.0987 17.7919 30.3089 17.6094 30.5528 17.4834C30.7967 17.3574 31.0672 17.2916 31.3418 17.2916C31.6163 17.2916 31.8868 17.3574 32.1307 17.4834C32.3746 17.6094 32.5848 17.7919 32.7437 18.0158C33.5246 19.0052 33.9272 20.2406 33.8792 21.5002C33.8926 22.4315 33.6865 23.3529 33.2775 24.1897Z" fill="#45556E"/>
<path d="M33.7035 17.152C33.4227 16.7932 33.064 16.5029 32.6544 16.3033C32.2449 16.1037 31.7952 16 31.3396 16C30.884 16 30.4344 16.1037 30.0248 16.3033C29.6152 16.5029 29.2565 16.7932 28.9758 17.152C27.982 18.3793 27.4606 19.9217 27.5059 21.5002C27.4606 23.0786 27.982 24.6211 28.9758 25.8483C29.2647 26.1979 29.6252 26.4815 30.0329 26.6802C30.4407 26.8788 30.8862 26.9879 31.3396 27C32.1112 26.9869 32.8492 26.6825 33.4058 26.1481L34.069 26.8102C34.1917 26.9245 34.3539 26.9867 34.5216 26.9838C34.6892 26.9808 34.8491 26.9129 34.9677 26.7943C35.0862 26.6758 35.1541 26.5159 35.1571 26.3482C35.16 26.1806 35.0978 26.0184 34.9835 25.8957L34.2286 25.1408C34.8663 24.0348 35.1928 22.7767 35.1733 21.5002C35.2186 19.9217 34.6972 18.3793 33.7035 17.152ZM33.2775 24.1897L32.5571 23.4693C32.4345 23.355 32.2722 23.2928 32.1046 23.2958C31.937 23.2987 31.777 23.3666 31.6585 23.4852C31.5399 23.6037 31.472 23.7637 31.4691 23.9313C31.4661 24.0989 31.5283 24.2611 31.6426 24.3838L32.4892 25.2314C32.1771 25.5251 31.768 25.6939 31.3396 25.7059C31.068 25.6924 30.8025 25.621 30.5607 25.4966C30.319 25.3722 30.1065 25.1976 29.9377 24.9845C29.156 23.9954 28.7526 22.76 28.8 21.5002C28.7532 20.2401 29.1574 19.0046 29.9398 18.0158C30.0987 17.7919 30.3089 17.6094 30.5528 17.4834C30.7967 17.3574 31.0672 17.2916 31.3418 17.2916C31.6163 17.2916 31.8868 17.3574 32.1307 17.4834C32.3746 17.6094 32.5848 17.7919 32.7437 18.0158C33.5246 19.0052 33.9272 20.2406 33.8792 21.5002C33.8926 22.4315 33.6865 23.3529 33.2775 24.1897Z" stroke="#45556E"/>
<defs>
<filter id="filter0_d_46_2585" x="0.615385" y="0.153846" width="48.3077" height="48.3077" filterUnits="userSpaceOnUse" color-interpolation-filters="sRGB">
<feFlood flood-opacity="0" result="BackgroundImageFix"/>
<feColorMatrix in="SourceAlpha" type="matrix" values="0 0 0 0 0 0 0 0 0 0 0 0 0 0 0 0 0 0 127 0" result="hardAlpha"/>
<feOffset dx="0.769231" dy="2.30769"/>
<feGaussianBlur stdDeviation="3.07692"/>
<feColorMatrix type="matrix" values="0 0 0 0 0 0 0 0 0 0 0 0 0 0 0 0 0 0 0.1 0"/>
<feBlend mode="normal" in2="BackgroundImageFix" result="effect1_dropShadow_46_2585"/>
<feBlend mode="normal" in="SourceGraphic" in2="effect1_dropShadow_46_2585" result="shape"/>
</filter>
</defs>
</svg>
