<svg width="24" height="24" viewBox="0 0 24 24" fill="none" xmlns="http://www.w3.org/2000/svg">
<path fill-rule="evenodd" clip-rule="evenodd" d="M17.986 5.42409C14.0077 4.97945 9.99226 4.97945 6.01398 5.42409C5.95298 5.43108 5.89499 5.45431 5.84604 5.49136C5.79709 5.52841 5.75898 5.57792 5.73569 5.63472C5.7124 5.69152 5.70478 5.75353 5.71362 5.81428C5.72247 5.87503 5.74745 5.93229 5.78598 5.98009L9.30298 10.3281C10.5627 11.8855 11.25 13.828 11.25 15.8311V18.7201L12.75 19.8201V15.8301C12.7502 13.8273 13.4374 11.8852 14.697 10.3281L18.214 5.98009C18.2525 5.93229 18.2775 5.87503 18.2863 5.81428C18.2952 5.75353 18.2876 5.69152 18.2643 5.63472C18.241 5.57792 18.2029 5.52841 18.1539 5.49136C18.105 5.45431 18.047 5.43108 17.986 5.42409ZM5.84798 3.93309C9.93691 3.47608 14.064 3.47608 18.153 3.93309C19.599 4.09509 20.296 5.79109 19.381 6.92309L15.864 11.2711C14.8198 12.5615 14.2501 14.1711 14.25 15.8311V21.3001C14.2501 21.4388 14.2117 21.5748 14.1392 21.693C14.0666 21.8112 13.9627 21.907 13.839 21.9697C13.7152 22.0323 13.5766 22.0595 13.4383 22.0481C13.3001 22.0367 13.1678 21.9872 13.056 21.9051L10.056 19.7051C9.96104 19.6354 9.88387 19.5442 9.83071 19.4391C9.77755 19.334 9.74989 19.2179 9.74998 19.1001V15.8301C9.74998 14.1701 9.17998 12.5611 8.13698 11.2701L4.61998 6.92409C3.70398 5.79209 4.39998 4.09509 5.84798 3.93309Z" fill="#45556E"/>
</svg>
