<svg width="36" height="36" viewBox="0 0 36 36" fill="none" xmlns="http://www.w3.org/2000/svg">
<rect width="36" height="36" rx="18" fill="white"/>
<g clip-path="url(#clip0_1121_20626)">
<path d="M15.5025 15.875C15.5025 16.3723 15.305 16.8492 14.9533 17.2008C14.6017 17.5525 14.1248 17.75 13.6275 17.75C13.1302 17.75 12.6533 17.5525 12.3017 17.2008C11.95 16.8492 11.7525 16.3723 11.7525 15.875C11.7525 15.3777 11.95 14.9008 12.3017 14.5492C12.6533 14.1975 13.1302 14 13.6275 14C14.1248 14 14.6017 14.1975 14.9533 14.5492C15.305 14.9008 15.5025 15.3777 15.5025 15.875Z" fill="#45556E"/>
<path d="M10.5025 10.25C9.83946 10.25 9.20358 10.5134 8.73474 10.9822C8.26589 11.4511 8.0025 12.087 8.0025 12.75V25.25C8.0025 25.913 8.26589 26.5489 8.73474 27.0178C9.20358 27.4866 9.83946 27.75 10.5025 27.75H25.5025C26.1655 27.75 26.8014 27.4866 27.2703 27.0178C27.7391 26.5489 28.0025 25.913 28.0025 25.25V12.75C28.0025 12.087 27.7391 11.4511 27.2703 10.9822C26.8014 10.5134 26.1655 10.25 25.5025 10.25H10.5025ZM25.5025 11.5C25.834 11.5 26.152 11.6317 26.3864 11.8661C26.6208 12.1005 26.7525 12.4185 26.7525 12.75V20.875L22.0313 18.4412C21.914 18.3825 21.7813 18.3622 21.6519 18.383C21.5224 18.4039 21.4028 18.4649 21.31 18.5575L16.6725 23.195L13.3475 20.98C13.2275 20.9001 13.0835 20.8641 12.9399 20.8783C12.7964 20.8924 12.6622 20.9557 12.56 21.0575L9.2525 24V12.75C9.2525 12.4185 9.3842 12.1005 9.61862 11.8661C9.85304 11.6317 10.171 11.5 10.5025 11.5H25.5025Z" fill="#45556E"/>
</g>
<defs>
<clipPath id="clip0_1121_20626">
<rect width="20" height="20" fill="white" transform="translate(8 9)"/>
</clipPath>
</defs>
</svg>
