<svg width="52" height="52" viewBox="0 0 52 52" fill="none" xmlns="http://www.w3.org/2000/svg">
<rect width="52" height="52" rx="26" fill="#16202F"/>
<path fill-rule="evenodd" clip-rule="evenodd" d="M17.9922 34.0078V33.1338H22.7628V34.0078H17.9922ZM22.7626 32.4509H17.9922V31.5766H22.7628V32.4509L22.7626 32.4509ZM18.6936 30.8938C18.3898 29.6772 18.7703 28.2548 19.1389 26.8786C19.1525 26.828 19.1542 26.775 19.144 26.7236C19.1338 26.6722 19.1119 26.6239 19.08 26.5823C19.0481 26.5408 19.0071 26.5072 18.9601 26.484C18.9131 26.4609 18.8614 26.4489 18.8091 26.4489H17.9629L17.9241 25.1298H21.5686C20.6242 26.5846 20.2176 28.9718 20.6132 30.8938L18.6936 30.8938ZM22.7233 26.2227H21.7587C21.9161 25.8458 22.1251 25.4927 22.3796 25.1734C22.3909 25.1595 22.4011 25.145 22.4105 25.1299H22.9498L22.7232 26.2227H22.7233ZM24.6661 24.4472H17.5726C17.1556 24.4467 16.7559 24.2808 16.461 23.9859C16.1662 23.691 16.0004 23.2912 16 22.8742V19.5652C16.0003 19.1482 16.1661 18.7483 16.4609 18.4534C16.7558 18.1585 17.1556 17.9926 17.5726 17.9922H24.6665L27.7461 19.6204V22.8102L24.6662 24.4472H24.6661ZM30.3512 22.0304L29.9743 22.6828H28.4287V19.7559H29.9743L30.3512 20.4082V22.0303V22.0304ZM35.0159 21.6668H31.0339V20.772H35.0159L36 21.2197L35.0159 21.6668ZM20.1423 19.3826C20.1423 19.292 20.1063 19.2052 20.0422 19.1412C19.9782 19.0771 19.8913 19.0412 19.8008 19.0411H17.2243C17.1791 19.0406 17.1343 19.0491 17.0925 19.0661C17.0507 19.083 17.0126 19.1081 16.9805 19.1398C16.9484 19.1716 16.923 19.2093 16.9056 19.251C16.8882 19.2927 16.8792 19.3373 16.8792 19.3825C16.8792 19.4276 16.8882 19.4723 16.9056 19.514C16.923 19.5556 16.9484 19.5934 16.9805 19.6252C17.0126 19.6569 17.0507 19.682 17.0925 19.6989C17.1343 19.7158 17.1791 19.7243 17.2243 19.7238H19.8008C19.8456 19.7239 19.89 19.7151 19.9314 19.6979C19.9729 19.6808 20.0105 19.6557 20.0422 19.624C20.0739 19.5923 20.0991 19.5546 20.1162 19.5132C20.1334 19.4718 20.1422 19.4274 20.1422 19.3826H20.1423ZM20.1423 20.6628C20.1423 20.5723 20.1063 20.4855 20.0422 20.4214C19.9782 20.3574 19.8914 20.3214 19.8009 20.3214H17.2243C17.1791 20.3209 17.1343 20.3294 17.0925 20.3463C17.0507 20.3632 17.0126 20.3883 16.9805 20.42C16.9484 20.4518 16.923 20.4896 16.9056 20.5312C16.8882 20.5729 16.8792 20.6176 16.8792 20.6627C16.8792 20.7079 16.8882 20.7525 16.9056 20.7942C16.923 20.8358 16.9484 20.8736 16.9805 20.9054C17.0126 20.9371 17.0507 20.9622 17.0925 20.9791C17.1343 20.9961 17.1791 21.0045 17.2243 21.0041H19.8008C19.8456 21.0041 19.89 20.9953 19.9314 20.9782C19.9729 20.961 20.0105 20.9359 20.0422 20.9042C20.0739 20.8725 20.0991 20.8349 20.1163 20.7935C20.1334 20.752 20.1422 20.7076 20.1422 20.6628H20.1423ZM20.1423 21.943C20.1423 21.8525 20.1063 21.7656 20.0422 21.7016C19.9782 21.6376 19.8913 21.6016 19.8008 21.6016H17.2243C17.1791 21.6011 17.1343 21.6096 17.0925 21.6265C17.0507 21.6434 17.0126 21.6685 16.9805 21.7002C16.9484 21.732 16.923 21.7698 16.9056 21.8114C16.8882 21.8531 16.8792 21.8978 16.8792 21.9429C16.8792 21.988 16.8882 22.0327 16.9056 22.0744C16.923 22.116 16.9484 22.1538 16.9805 22.1856C17.0126 22.2173 17.0507 22.2424 17.0925 22.2593C17.1343 22.2763 17.1791 22.2847 17.2243 22.2843H19.8008C19.8456 22.2843 19.89 22.2755 19.9314 22.2583C19.9728 22.2412 20.0105 22.216 20.0422 22.1844C20.0739 22.1527 20.099 22.115 20.1162 22.0736C20.1334 22.0322 20.1422 21.9878 20.1422 21.943L20.1423 21.943ZM24.2757 28.1043C24.1999 28.1211 24.132 28.1632 24.0834 28.2238C24.0347 28.2844 24.0082 28.3598 24.0082 28.4375V29.6867C24.0083 29.7644 24.0349 29.8397 24.0835 29.9002C24.1321 29.9608 24.1999 30.003 24.2757 30.0199L24.7416 30.1236C24.8142 30.3662 24.9117 30.6007 25.0323 30.8234L24.7754 31.2266C24.7338 31.2922 24.7158 31.37 24.7243 31.4473C24.7328 31.5245 24.7674 31.5966 24.8223 31.6516L25.7051 32.5344C25.76 32.5893 25.8321 32.6239 25.9093 32.6324C25.9866 32.6408 26.0644 32.6227 26.1299 32.5809L26.5336 32.3244C26.7562 32.4451 26.9907 32.5423 27.2334 32.6145L27.3371 33.081C27.354 33.1568 27.3962 33.2246 27.4567 33.2732C27.5173 33.3219 27.5926 33.3484 27.6703 33.3486H28.9195C28.9972 33.3485 29.0725 33.322 29.1331 33.2733C29.1937 33.2247 29.2359 33.1568 29.2527 33.081L29.3564 32.6145C29.5992 32.5423 29.8339 32.4451 30.0566 32.3244L30.46 32.5809C30.5255 32.6227 30.6033 32.6408 30.6804 32.6324C30.7576 32.6239 30.8296 32.5893 30.8845 32.5344L31.7679 31.6516C31.8228 31.5965 31.8573 31.5245 31.8657 31.4472C31.8742 31.37 31.8561 31.2921 31.8144 31.2266L31.5579 30.8233C31.6784 30.6006 31.7756 30.3661 31.8482 30.1235L32.3145 30.0198C32.3903 30.0029 32.458 29.9607 32.5066 29.9001C32.5551 29.8395 32.5816 29.7642 32.5816 29.6866V28.4375C32.5817 28.3598 32.5553 28.2845 32.5067 28.2239C32.4581 28.1633 32.3903 28.1211 32.3145 28.1043L31.8482 28.0006C31.7757 27.7578 31.6784 27.5231 31.5579 27.3002L31.8144 26.897C31.8561 26.8314 31.8742 26.7537 31.8657 26.6765C31.8573 26.5993 31.8228 26.5273 31.7679 26.4723L30.8845 25.5891C30.8296 25.5343 30.7576 25.4997 30.6804 25.4913C30.6033 25.4828 30.5255 25.5009 30.46 25.5426L30.0566 25.7991C29.8338 25.6784 29.5992 25.5811 29.3564 25.5088L29.2527 25.0425C29.2359 24.9667 29.1937 24.8989 29.1331 24.8504C29.0725 24.8018 28.9971 24.7753 28.9195 24.7754H27.6703C27.5927 24.7754 27.5174 24.8019 27.4568 24.8504C27.3962 24.899 27.354 24.9668 27.3371 25.0425L27.2334 25.5088C26.9908 25.5812 26.7563 25.6785 26.5336 25.7991L26.13 25.5426C26.0644 25.5009 25.9866 25.4828 25.9094 25.4913C25.8322 25.4997 25.7601 25.5343 25.7052 25.5891L24.8223 26.4723C24.7674 26.5272 24.7329 26.5992 24.7243 26.6764C24.7158 26.7536 24.7338 26.8314 24.7755 26.897L25.0323 27.3002C24.9117 27.5231 24.8143 27.7578 24.7416 28.0006L24.2758 28.1043L24.2757 28.1043ZM28.295 31.2472C27.8629 31.2472 27.4404 31.1191 27.0811 30.879C26.7217 30.6389 26.4416 30.2977 26.2762 29.8984C26.1108 29.4992 26.0675 29.0598 26.1518 28.636C26.236 28.2121 26.4441 27.8227 26.7497 27.5171C27.0552 27.2115 27.4445 27.0033 27.8684 26.919C28.2922 26.8346 28.7316 26.8778 29.1309 27.0432C29.5302 27.2085 29.8715 27.4885 30.1116 27.8478C30.3518 28.2071 30.48 28.6296 30.48 29.0618C30.4795 29.6411 30.2491 30.1966 29.8395 30.6063C29.4299 31.016 28.8744 31.2465 28.295 31.2472ZM28.295 27.5597C28.5922 27.5597 28.8827 27.6478 29.1298 27.813C29.3768 27.9781 29.5694 28.2127 29.6831 28.4873C29.7968 28.7618 29.8265 29.0639 29.7685 29.3554C29.7105 29.6468 29.5673 29.9145 29.3572 30.1246C29.147 30.3347 28.8793 30.4778 28.5878 30.5357C28.2964 30.5936 27.9943 30.5638 27.7198 30.4501C27.4453 30.3363 27.2106 30.1437 27.0456 29.8966C26.8805 29.6495 26.7925 29.359 26.7925 29.0618C26.793 28.6635 26.9515 28.2816 27.2331 28C27.5148 27.7184 27.8967 27.56 28.295 27.5596V27.5597Z" fill="#01D2B4"/>
</svg>
