<svg width="53" height="53" viewBox="0 0 53 53" fill="none" xmlns="http://www.w3.org/2000/svg">
<g filter="url(#filter0_d_1407_58560)">
<circle cx="26" cy="24" r="20" fill="white"/>
</g>
<g clip-path="url(#clip0_1407_58560)">
<path d="M26 34.0001C26.663 34.0001 27.2989 33.7367 27.7678 33.2679C28.2366 32.799 28.5 32.1632 28.5 31.5001H23.5C23.5 32.1632 23.7634 32.799 24.2322 33.2679C24.7011 33.7367 25.337 34.0001 26 34.0001ZM26 16.3976L25.0037 16.5989C23.8735 16.8287 22.8574 17.4422 22.1278 18.3354C21.3981 19.2287 20.9997 20.3467 21 21.5001C21 22.2851 20.8325 24.2464 20.4262 26.1776C20.2262 27.1364 19.9562 28.1351 19.5975 29.0001H32.4025C32.0437 28.1351 31.775 27.1376 31.5737 26.1776C31.1675 24.2464 31 22.2851 31 21.5001C31.0001 20.3469 30.6015 19.2292 29.8719 18.3362C29.1422 17.4432 28.1263 16.8299 26.9963 16.6001L26 16.3976ZM33.775 29.0001C34.0538 29.5589 34.3762 30.0014 34.75 30.2501H17.25C17.6238 30.0014 17.9462 29.5589 18.225 29.0001C19.35 26.7501 19.75 22.6001 19.75 21.5001C19.75 18.4751 21.9 15.9501 24.7563 15.3739C24.7388 15.2001 24.758 15.0245 24.8125 14.8586C24.8671 14.6926 24.9558 14.54 25.073 14.4104C25.1902 14.2809 25.3333 14.1774 25.4929 14.1065C25.6526 14.0356 25.8253 13.999 26 13.999C26.1747 13.999 26.3474 14.0356 26.5071 14.1065C26.6667 14.1774 26.8098 14.2809 26.927 14.4104C27.0442 14.54 27.1329 14.6926 27.1875 14.8586C27.242 15.0245 27.2612 15.2001 27.2437 15.3739C28.6568 15.6608 29.9272 16.4275 30.8396 17.544C31.752 18.6606 32.2503 20.0582 32.25 21.5001C32.25 22.6001 32.65 26.7501 33.775 29.0001Z" fill="#45556E"/>
</g>
<defs>
<filter id="filter0_d_1407_58560" x="0.615385" y="0.153846" width="52.3077" height="52.3077" filterUnits="userSpaceOnUse" color-interpolation-filters="sRGB">
<feFlood flood-opacity="0" result="BackgroundImageFix"/>
<feColorMatrix in="SourceAlpha" type="matrix" values="0 0 0 0 0 0 0 0 0 0 0 0 0 0 0 0 0 0 127 0" result="hardAlpha"/>
<feOffset dx="0.769231" dy="2.30769"/>
<feGaussianBlur stdDeviation="3.07692"/>
<feColorMatrix type="matrix" values="0 0 0 0 0 0 0 0 0 0 0 0 0 0 0 0 0 0 0.1 0"/>
<feBlend mode="normal" in2="BackgroundImageFix" result="effect1_dropShadow_1407_58560"/>
<feBlend mode="normal" in="SourceGraphic" in2="effect1_dropShadow_1407_58560" result="shape"/>
</filter>
<clipPath id="clip0_1407_58560">
<rect width="20" height="20" fill="white" transform="translate(16 14)"/>
</clipPath>
</defs>
</svg>
