<svg width="49" height="49" viewBox="0 0 49 49" fill="none" xmlns="http://www.w3.org/2000/svg">
<g filter="url(#filter0_d_2396_11106)">
<circle cx="24" cy="22" r="18" fill="white"/>
</g>
<g clip-path="url(#clip0_2396_11106)">
<path d="M23 32.0001C23.663 32.0001 24.2989 31.7367 24.7678 31.2679C25.2366 30.799 25.5 30.1632 25.5 29.5001H20.5C20.5 30.1632 20.7634 30.799 21.2322 31.2679C21.7011 31.7367 22.337 32.0001 23 32.0001ZM23 14.3976L22.0037 14.5989C20.8735 14.8287 19.8574 15.4422 19.1278 16.3354C18.3981 17.2287 17.9997 18.3467 18 19.5001C18 20.2851 17.8325 22.2464 17.4262 24.1776C17.2262 25.1364 16.9562 26.1351 16.5975 27.0001H29.4025C29.0437 26.1351 28.775 25.1376 28.5737 24.1776C28.1675 22.2464 28 20.2851 28 19.5001C28.0001 18.3469 27.6015 17.2292 26.8719 16.3362C26.1422 15.4432 25.1263 14.8299 23.9963 14.6001L23 14.3976ZM30.775 27.0001C31.0538 27.5589 31.3762 28.0014 31.75 28.2501H14.25C14.6238 28.0014 14.9462 27.5589 15.225 27.0001C16.35 24.7501 16.75 20.6001 16.75 19.5001C16.75 16.4751 18.9 13.9501 21.7563 13.3739C21.7388 13.2001 21.758 13.0245 21.8125 12.8586C21.8671 12.6926 21.9558 12.54 22.073 12.4104C22.1902 12.2809 22.3333 12.1774 22.4929 12.1065C22.6526 12.0356 22.8253 11.999 23 11.999C23.1747 11.999 23.3474 12.0356 23.5071 12.1065C23.6667 12.1774 23.8098 12.2809 23.927 12.4104C24.0442 12.54 24.1329 12.6926 24.1875 12.8586C24.242 13.0245 24.2612 13.2001 24.2437 13.3739C25.6568 13.6608 26.9272 14.4275 27.8396 15.544C28.752 16.6606 29.2503 18.0582 29.25 19.5001C29.25 20.6001 29.65 24.7501 30.775 27.0001Z" fill="#45556E"/>
</g>
<circle cx="30" cy="16" r="4.5" fill="#E63950" stroke="white"/>
<defs>
<filter id="filter0_d_2396_11106" x="0.615385" y="0.153846" width="48.3077" height="48.3077" filterUnits="userSpaceOnUse" color-interpolation-filters="sRGB">
<feFlood flood-opacity="0" result="BackgroundImageFix"/>
<feColorMatrix in="SourceAlpha" type="matrix" values="0 0 0 0 0 0 0 0 0 0 0 0 0 0 0 0 0 0 127 0" result="hardAlpha"/>
<feOffset dx="0.769231" dy="2.30769"/>
<feGaussianBlur stdDeviation="3.07692"/>
<feColorMatrix type="matrix" values="0 0 0 0 0 0 0 0 0 0 0 0 0 0 0 0 0 0 0.1 0"/>
<feBlend mode="normal" in2="BackgroundImageFix" result="effect1_dropShadow_2396_11106"/>
<feBlend mode="normal" in="SourceGraphic" in2="effect1_dropShadow_2396_11106" result="shape"/>
</filter>
<clipPath id="clip0_2396_11106">
<rect width="20" height="20" fill="white" transform="translate(13 12)"/>
</clipPath>
</defs>
</svg>
