<svg width="20" height="20" viewBox="0 0 20 20" fill="none" xmlns="http://www.w3.org/2000/svg">
<path d="M3.59125 14.1214V5.17762H2.12375L0 6.72387V8.14512L2.05 6.67012H2.125V14.1214H3.59125ZM7.6075 7.75887V7.68012C7.6075 6.90762 8.1575 6.21887 9.1025 6.21887C9.9475 6.21887 10.57 6.76887 10.57 7.60137C10.57 8.38137 10.045 8.97762 9.56125 9.50887L6.2375 13.1914V14.1214H12.2125V12.8839H8.30375V12.7976L10.5125 10.3151C11.325 9.41011 12.0588 8.65012 12.0588 7.47762C12.0575 6.06137 10.9038 5.00012 9.135 5.00012C7.16875 5.00012 6.185 6.33012 6.185 7.68762V7.75887H7.6075ZM15.8063 10.1126H16.7887C17.8175 10.1126 18.5063 10.7139 18.5125 11.5864C18.525 12.4701 17.825 13.1064 16.7362 13.0989C15.7738 13.0926 15.0788 12.5751 15.0125 11.9076H13.6438C13.6962 13.2239 14.8162 14.3051 16.7237 14.3051C18.5712 14.3051 20.0262 13.2564 19.9987 11.6251C19.9737 10.1964 18.8463 9.56137 18.06 9.48262V9.40386C18.7288 9.29136 19.7437 8.57887 19.7175 7.30637C19.685 5.99012 18.5513 4.98762 16.7687 5.00012C14.8938 5.00637 13.8725 6.10012 13.8338 7.37262H15.2287C15.2687 6.75012 15.8512 6.19262 16.7362 6.19262C17.615 6.19262 18.2437 6.73637 18.2437 7.53012C18.25 8.33012 17.6138 8.91262 16.7438 8.91262H15.8063V10.1126Z" fill="#45556E"/>
</svg>
