<svg width="24" height="24" viewBox="0 0 24 24" fill="none" xmlns="http://www.w3.org/2000/svg">
<path d="M8.26653 14.6787C8.08253 14.6787 7.95853 14.6967 7.89453 14.7147V15.8927C7.97053 15.9107 8.06553 15.9157 8.19653 15.9157C8.67553 15.9157 8.97053 15.6737 8.97053 15.2647C8.97053 14.8987 8.71653 14.6787 8.26653 14.6787ZM11.7535 14.6907C11.5535 14.6907 11.4235 14.7087 11.3465 14.7267V17.3367C11.4235 17.3547 11.5475 17.3547 11.6595 17.3547C12.4765 17.3607 13.0085 16.9107 13.0085 15.9587C13.0145 15.1287 12.5295 14.6907 11.7535 14.6907Z" fill="#F57156"/>
<path d="M14 1.99902H6C5.46957 1.99902 4.96086 2.20974 4.58579 2.58481C4.21071 2.95988 4 3.46859 4 3.99902V19.999C4 20.5295 4.21071 21.0382 4.58579 21.4132C4.96086 21.7883 5.46957 21.999 6 21.999H18C18.5304 21.999 19.0391 21.7883 19.4142 21.4132C19.7893 21.0382 20 20.5295 20 19.999V7.99902L14 1.99902ZM9.498 16.189C9.189 16.479 8.733 16.609 8.202 16.609C8.09904 16.6101 7.99613 16.6041 7.894 16.591V18.017H7V14.081C7.40345 14.0208 7.81112 13.9934 8.219 13.999C8.776 13.999 9.172 14.105 9.439 14.318C9.693 14.52 9.865 14.851 9.865 15.241C9.864 15.633 9.734 15.964 9.498 16.189ZM13.305 17.544C12.885 17.893 12.246 18.059 11.465 18.059C10.997 18.059 10.666 18.029 10.441 17.999V14.082C10.8446 14.0231 11.2521 13.9954 11.66 13.999C12.417 13.999 12.909 14.135 13.293 14.425C13.708 14.733 13.968 15.224 13.968 15.929C13.968 16.692 13.689 17.219 13.305 17.544ZM17 14.769H15.468V15.68H16.9V16.414H15.468V18.018H14.562V14.029H17V14.769ZM14 8.99902H13V3.99902L18 8.99902H14Z" fill="#F57156"/>
</svg>
