<svg width="20" height="20" viewBox="0 0 20 20" fill="none" xmlns="http://www.w3.org/2000/svg">
<path d="M10.0001 1.66602C5.40008 1.66602 1.66675 5.39934 1.66675 9.99934C1.66675 14.5993 5.40008 18.3327 10.0001 18.3327C14.6001 18.3327 18.3335 14.5993 18.3335 9.99934C18.3335 5.39934 14.6001 1.66602 10.0001 1.66602ZM10.0001 16.666C6.31675 16.666 3.33341 13.6827 3.33341 9.99934C3.33341 6.31601 6.31675 3.33268 10.0001 3.33268C13.6835 3.33268 16.6668 6.31601 16.6668 9.99934C16.6668 13.6827 13.6835 16.666 10.0001 16.666Z" fill="#45556E"/>
<path d="M9.99992 14.1673C12.3011 14.1673 14.1665 12.3018 14.1665 10.0007C14.1665 7.69946 12.3011 5.83398 9.99992 5.83398C7.69873 5.83398 5.83325 7.69946 5.83325 10.0007C5.83325 12.3018 7.69873 14.1673 9.99992 14.1673Z" fill="#45556E"/>
</svg>
