<svg width="18" height="18" viewBox="0 0 18 18" fill="none" xmlns="http://www.w3.org/2000/svg">
<g clip-path="url(#clip0_2396_11102)">
<path d="M12.8273 11.398C13.8176 10.0467 14.2611 8.37122 14.0692 6.7069C13.8772 5.04257 13.064 3.51209 11.792 2.42165C10.5201 1.33121 8.88339 0.761228 7.20928 0.825735C5.53516 0.890241 3.94713 1.58448 2.7629 2.76956C1.57867 3.95464 0.885566 5.54317 0.822257 7.21733C0.758948 8.89149 1.3301 10.5278 2.42145 11.799C3.5128 13.0701 5.04387 13.8823 6.70833 14.073C8.37279 14.2638 10.0479 13.819 11.3985 12.8278H11.3975C11.4275 12.8687 11.4609 12.9079 11.4977 12.9454L15.4352 16.8829C15.627 17.0748 15.8872 17.1827 16.1585 17.1827C16.4298 17.1828 16.69 17.0752 16.8819 16.8834C17.0738 16.6916 17.1817 16.4315 17.1818 16.1602C17.1819 15.8889 17.0742 15.6286 16.8824 15.4367L12.9449 11.4992C12.9084 11.4622 12.869 11.429 12.8273 11.398ZM13.0911 7.46663C13.0911 8.20532 12.9457 8.93677 12.663 9.61923C12.3803 10.3017 11.966 10.9218 11.4436 11.4441C10.9213 11.9664 10.3012 12.3808 9.61874 12.6635C8.93629 12.9461 8.20484 13.0916 7.46615 13.0916C6.72746 13.0916 5.99601 12.9461 5.31356 12.6635C4.6311 12.3808 4.011 11.9664 3.48867 11.4441C2.96635 10.9218 2.55201 10.3017 2.26933 9.61923C1.98665 8.93677 1.84115 8.20532 1.84115 7.46663C1.84115 5.97479 2.43378 4.54405 3.48867 3.48916C4.54357 2.43427 5.97431 1.84163 7.46615 1.84163C8.95799 1.84163 10.3887 2.43427 11.4436 3.48916C12.4985 4.54405 13.0911 5.97479 13.0911 7.46663Z" fill="#45556E"/>
</g>
<defs>
<clipPath id="clip0_2396_11102">
<rect width="16.3636" height="16.3636" fill="white" transform="translate(0.818237 0.818359)"/>
</clipPath>
</defs>
</svg>
