<svg width="48" height="48" viewBox="0 0 48 48" fill="none" xmlns="http://www.w3.org/2000/svg">
<rect width="48" height="48" rx="8" fill="#01D2B4"/>
<g clip-path="url(#clip0_1407_56994)">
<path d="M37.8841 24C37.884 24.1225 37.8479 24.2422 37.7803 24.3444C37.7128 24.4465 37.6167 24.5266 37.504 24.5745L19.5028 32.2891C19.3443 32.357 19.1701 32.3798 18.9993 32.3551C18.8286 32.3304 18.6681 32.259 18.5353 32.1489C18.4025 32.0388 18.3027 31.8942 18.2468 31.731C18.1909 31.5678 18.1811 31.3924 18.2186 31.224L19.8246 24L18.2186 16.776C18.1808 16.6075 18.1904 16.4318 18.2463 16.2683C18.3021 16.1049 18.402 15.96 18.5349 15.8498C18.6679 15.7395 18.8287 15.6681 18.9996 15.6435C19.1706 15.6188 19.345 15.6419 19.5037 15.7101L37.5031 23.4264C37.6158 23.4744 37.7119 23.5544 37.7795 23.6566C37.847 23.7587 37.8831 23.8784 37.8832 24.0009L37.8841 24ZM20.9648 24.624L19.5709 30.8987L34.2124 24.624H20.9648ZM34.2124 23.3742L19.5709 17.0995L20.9665 23.3742L34.2124 23.3742Z" fill="white"/>
</g>
<defs>
<clipPath id="clip0_1407_56994">
<rect width="20" height="20" fill="white" transform="translate(24 9.8584) rotate(45)"/>
</clipPath>
</defs>
</svg>
