<svg width="48" height="48" viewBox="0 0 48 48" fill="none" xmlns="http://www.w3.org/2000/svg">
<rect width="48" height="48" rx="8" fill="#E7FFFC"/>
<g clip-path="url(#clip0_1407_56990)">
<path d="M24 32.75C21.6794 32.75 19.4538 31.8281 17.8128 30.1872C16.1719 28.5462 15.25 26.3206 15.25 24C15.25 21.6794 16.1719 19.4538 17.8128 17.8128C19.4538 16.1719 21.6794 15.25 24 15.25C26.3206 15.25 28.5462 16.1719 30.1872 17.8128C31.8281 19.4538 32.75 21.6794 32.75 24C32.75 26.3206 31.8281 28.5462 30.1872 30.1872C28.5462 31.8281 26.3206 32.75 24 32.75ZM24 34C26.6522 34 29.1957 32.9464 31.0711 31.0711C32.9464 29.1957 34 26.6522 34 24C34 21.3478 32.9464 18.8043 31.0711 16.9289C29.1957 15.0536 26.6522 14 24 14C21.3478 14 18.8043 15.0536 16.9289 16.9289C15.0536 18.8043 14 21.3478 14 24C14 26.6522 15.0536 29.1957 16.9289 31.0711C18.8043 32.9464 21.3478 34 24 34Z" fill="#01D2B4"/>
<path d="M19.3562 25.9588C19.4998 25.8759 19.6704 25.8534 19.8305 25.8963C19.9906 25.9392 20.1271 26.044 20.21 26.1875C20.5941 26.8528 21.1465 27.4051 21.8118 27.7891C22.4772 28.1731 23.2318 28.3752 24 28.375C24.7682 28.3752 25.5228 28.1731 26.1881 27.7891C26.8534 27.4051 27.4059 26.8528 27.79 26.1875C27.8307 26.1158 27.8852 26.053 27.9504 26.0025C28.0155 25.952 28.09 25.9148 28.1696 25.8932C28.2491 25.8716 28.3321 25.866 28.4139 25.8766C28.4956 25.8872 28.5744 25.9139 28.6458 25.9551C28.7172 25.9964 28.7797 26.0513 28.8298 26.1168C28.8799 26.1822 28.9165 26.257 28.9376 26.3367C28.9586 26.4163 28.9637 26.4994 28.9526 26.5811C28.9414 26.6627 28.9142 26.7414 28.8725 26.8125C28.3787 27.6678 27.6684 28.378 26.8131 28.8717C25.9578 29.3654 24.9876 29.6252 24 29.625C23.0124 29.6252 22.0422 29.3654 21.1869 28.8717C20.3315 28.378 19.6213 27.6678 19.1275 26.8125C19.0446 26.669 19.0222 26.4984 19.0651 26.3383C19.108 26.1781 19.2127 26.0416 19.3562 25.9588ZM22.75 22.125C22.75 23.16 22.19 24 21.5 24C20.81 24 20.25 23.16 20.25 22.125C20.25 21.09 20.81 20.25 21.5 20.25C22.19 20.25 22.75 21.09 22.75 22.125ZM27.75 22.125C27.75 23.16 27.19 24 26.5 24C25.81 24 25.25 23.16 25.25 22.125C25.25 21.09 25.81 20.25 26.5 20.25C27.19 20.25 27.75 21.09 27.75 22.125Z" fill="#01D2B4"/>
</g>
<defs>
<clipPath id="clip0_1407_56990">
<rect width="20" height="20" fill="white" transform="translate(14 14)"/>
</clipPath>
</defs>
</svg>
