<svg width="52" height="52" viewBox="0 0 52 52" fill="none" xmlns="http://www.w3.org/2000/svg">
<path d="M21.215 38.2468H14.8045C14.3641 38.2468 14.007 38.6039 14.007 39.0444V45.456C14.007 45.8965 14.3641 46.2536 14.8045 46.2536H21.215C21.6554 46.2536 22.0125 45.8965 22.0125 45.456V39.0444C22.0125 38.604 21.6553 38.2468 21.215 38.2468ZM20.4174 44.6585H15.6021V39.842H20.4174V44.6585Z" fill="#01D2B4"/>
<path d="M40.4582 6.25901H35.9891C35.5941 5.61317 34.8886 5.17716 34.0777 5.17716H28.7185C28.9824 4.71617 29.1451 4.18957 29.1451 3.62102C29.1451 1.88806 27.7353 0.478271 26.0024 0.478271C24.2651 0.478271 22.8515 1.88806 22.8515 3.62102C22.8515 4.18967 23.0147 4.71617 23.2793 5.17716H17.9225C17.1116 5.17716 16.406 5.61317 16.011 6.25901H11.542C10.1354 6.25901 8.99084 7.40351 8.99084 8.81015V48.9707C8.99084 50.3773 10.1354 51.5219 11.542 51.5219H40.4581C41.8647 51.5219 43.0092 50.3773 43.0092 48.9707V8.81015C43.0093 7.40351 41.8648 6.25901 40.4582 6.25901ZM24.4467 3.62092C24.4467 2.76769 25.1446 2.07331 26.0025 2.07331C26.8557 2.07331 27.5501 2.76769 27.5501 3.62092C27.5501 4.47882 26.8557 5.17706 26.0025 5.17706C25.1446 5.17716 24.4467 4.47882 24.4467 3.62092ZM17.2714 7.42301C17.2714 7.0644 17.5635 6.7723 17.9226 6.7723H34.0777C34.4367 6.7723 34.7288 7.0644 34.7288 7.42301V8.34134C34.7288 9.58091 33.7202 10.5895 32.4806 10.5895H19.5196C18.2801 10.5895 17.2714 9.58091 17.2714 8.34134V7.42301ZM41.4142 48.9706C41.4142 49.4979 40.9854 49.9266 40.4582 49.9266H11.5421C11.0148 49.9266 10.5861 49.4978 10.5861 48.9706V8.81015C10.5861 8.28284 11.0149 7.85415 11.5421 7.85415H15.6763V8.34134C15.6763 10.4606 17.4003 12.1847 19.5196 12.1847H32.4807C34.6 12.1847 36.3241 10.4606 36.3241 8.34134V7.85415H40.4583C40.9856 7.85415 41.4143 8.28294 41.4143 8.81015L41.4142 48.9706Z" fill="#01D2B4"/>
<path d="M24.3081 29.8901H29.2352C29.6756 29.8901 30.0327 29.533 30.0327 29.0925C30.0327 28.652 29.6756 28.2949 29.2352 28.2949H24.3081C23.8676 28.2949 23.5105 28.652 23.5105 29.0925C23.5105 29.533 23.8676 29.8901 24.3081 29.8901Z" fill="#01D2B4"/>
<path d="M24.3081 33.8036H37.1936C37.6341 33.8036 37.9912 33.4465 37.9912 33.0061C37.9912 32.5656 37.6341 32.2085 37.1936 32.2085H24.3081C23.8676 32.2085 23.5105 32.5656 23.5105 33.0061C23.5105 33.4465 23.8676 33.8036 24.3081 33.8036Z" fill="#01D2B4"/>
<path d="M18.0114 35.3176C20.2144 35.3176 22.0069 33.5215 22.0069 31.3142C22.0069 29.1068 20.2144 27.3108 18.0114 27.3108C15.8044 27.3108 14.0088 29.1068 14.0088 31.3142C14.0088 33.5215 15.8044 35.3176 18.0114 35.3176ZM18.0114 28.9059C19.335 28.9059 20.4118 29.9863 20.4118 31.3142C20.4118 32.6421 19.335 33.7224 18.0114 33.7224C16.6838 33.7224 15.6039 32.6421 15.6039 31.3142C15.6039 29.9863 16.6837 28.9059 18.0114 28.9059Z" fill="#01D2B4"/>
<path d="M17.0488 32.4926C17.3591 32.8028 17.8644 32.8052 18.177 32.4926L19.406 31.2635C19.7176 30.952 19.7176 30.4473 19.406 30.1358C19.0944 29.8242 18.5897 29.8242 18.2782 30.1358L17.5995 30.8145C17.2919 30.6198 16.879 30.6572 16.61 30.9247C16.2984 31.2363 16.2984 31.741 16.6096 32.0529L17.0488 32.4926Z" fill="#01D2B4"/>
<path d="M24.3099 39.1301C23.8694 39.1301 23.5123 39.4872 23.5123 39.9277C23.5123 40.3682 23.8694 40.7253 24.3099 40.7253H29.2366C29.6771 40.7253 30.0342 40.3682 30.0342 39.9277C30.0342 39.4872 29.6771 39.1301 29.2366 39.1301H24.3099Z" fill="#01D2B4"/>
<path d="M37.1953 43.0435H24.3099C23.8694 43.0435 23.5123 43.4006 23.5123 43.841C23.5123 44.2815 23.8694 44.6386 24.3099 44.6386H37.1954C37.6359 44.6386 37.993 44.2815 37.993 43.841C37.9929 43.4006 37.6358 43.0435 37.1953 43.0435Z" fill="#01D2B4"/>
<path d="M24.3099 18.8263H29.2366C29.6771 18.8263 30.0342 18.4692 30.0342 18.0288C30.0342 17.5883 29.6771 17.2312 29.2366 17.2312H24.3099C23.8694 17.2312 23.5123 17.5883 23.5123 18.0288C23.5123 18.4692 23.8694 18.8263 24.3099 18.8263Z" fill="#01D2B4"/>
<path d="M37.1953 21.1443H24.3099C23.8694 21.1443 23.5123 21.5014 23.5123 21.9419C23.5123 22.3823 23.8694 22.7394 24.3099 22.7394H37.1954C37.6359 22.7394 37.993 22.3823 37.993 21.9419C37.9929 21.5014 37.6358 21.1443 37.1953 21.1443Z" fill="#01D2B4"/>
<path d="M21.215 16.2466H14.8045C14.3641 16.2466 14.007 16.6037 14.007 17.0442V23.4558C14.007 23.8963 14.3641 24.2534 14.8045 24.2534H21.215C21.6554 24.2534 22.0125 23.8963 22.0125 23.4558V17.0442C22.0125 16.6038 21.6553 16.2466 21.215 16.2466ZM20.4174 22.6582H15.6021V17.8417H20.4174V22.6582Z" fill="#01D2B4"/>
</svg>
