<svg width="48" height="48" viewBox="0 0 48 48" fill="none" xmlns="http://www.w3.org/2000/svg">
<rect width="48" height="48" rx="12" fill="white"/>
<path d="M23.9579 7.20801C33.2087 7.20801 40.7079 14.7072 40.7079 23.958C40.7079 33.2088 33.2087 40.708 23.9579 40.708C14.7071 40.708 7.20789 33.2088 7.20789 23.958C7.20789 14.7072 14.7071 7.20801 23.9579 7.20801Z" stroke="#01D2B4" stroke-width="2.5"/>
<path d="M25.3126 15.8844C27.0712 15.1555 27.9058 13.139 27.1769 11.3804C26.448 9.62186 24.4315 8.78717 22.6729 9.5161C20.9144 10.245 20.0797 12.2615 20.8086 14.0201C21.5375 15.7786 23.554 16.6133 25.3126 15.8844Z" fill="#01D2B4"/>
<path d="M15.2317 33.2937C17.1349 33.2937 18.6777 31.7509 18.6777 29.8477C18.6777 27.9445 17.1349 26.4016 15.2317 26.4016C13.3285 26.4016 11.7856 27.9445 11.7856 29.8477C11.7856 31.7509 13.3285 33.2937 15.2317 33.2937Z" fill="#01D2B4"/>
<path d="M32.7406 26.4041C33.4227 26.4041 34.0894 26.6063 34.6566 26.9853C35.2237 27.3642 35.6657 27.9028 35.9268 28.533C36.1878 29.1632 36.2561 29.8566 36.123 30.5256C35.9899 31.1946 35.6615 31.8091 35.1792 32.2914C34.6969 32.7737 34.0824 33.1021 33.4134 33.2352C32.7444 33.3683 32.051 33.3 31.4208 33.0389C30.7906 32.7779 30.252 32.3359 29.8731 31.7688C29.4941 31.2016 29.2919 30.5348 29.2919 29.8528C29.2919 28.9381 29.6552 28.0609 30.302 27.4142C30.9487 26.7674 31.8259 26.4041 32.7406 26.4041Z" fill="#01D2B4"/>
<path d="M28.6233 12.2061C28.6425 12.3716 28.6523 12.5381 28.6525 12.7048C28.6539 13.5096 28.4444 14.3008 28.045 14.9995C29.9193 15.8917 31.4484 17.3752 32.397 19.2216C33.3456 21.068 33.6611 23.175 33.295 25.2183C34.2656 25.3316 35.1752 25.7506 35.8921 26.4147C36.5765 23.5686 36.2199 20.5715 34.8867 17.9655C33.5535 15.3594 31.3318 13.3165 28.6233 12.2061ZM28.5251 31.8371C27.1347 32.5995 25.5745 32.9991 23.9888 32.9991C22.403 32.9991 20.8429 32.5995 19.4524 31.8371C19.0343 32.7221 18.3497 33.454 17.4946 33.9302C19.4411 35.1472 21.6905 35.7925 23.9861 35.7925C26.2817 35.7925 28.5311 35.1472 30.4776 33.9302C29.6241 33.4537 28.9412 32.7218 28.5251 31.8371ZM19.9273 14.9995C19.5283 14.3016 19.3188 13.5114 19.3198 12.7074C19.32 12.5408 19.3297 12.3743 19.3489 12.2087C16.6405 13.3191 14.4188 15.3621 13.0856 17.9681C11.7524 20.5742 11.3957 23.5712 12.0801 26.4174C12.7971 25.7532 13.7066 25.3343 14.6773 25.2209C14.3105 23.1773 14.6257 21.0697 15.5744 19.2227C16.523 17.3758 18.0525 15.8919 19.9273 14.9995Z" fill="#01D2B4"/>
</svg>
