<svg width="28" height="28" viewBox="0 0 28 28" fill="none" xmlns="http://www.w3.org/2000/svg">
<g clip-path="url(#clip0_61_3)">
<path d="M13.9999 0.972168C21.1949 0.972168 27.0277 6.80491 27.0277 13.9999C27.0277 21.1949 21.1949 27.0277 13.9999 27.0277C6.80491 27.0277 0.972168 21.1949 0.972168 13.9999C0.972168 6.80491 6.80491 0.972168 13.9999 0.972168Z" stroke="#01D2B4" stroke-width="1.94444"/>
<path d="M15.0533 7.72065C16.4211 7.15371 17.0703 5.58532 16.5033 4.21755C15.9364 2.84978 14.368 2.20058 13.0002 2.76753C11.6325 3.33447 10.9833 4.90286 11.5502 6.27063C12.1172 7.6384 13.6856 8.2876 15.0533 7.72065Z" fill="#F57156"/>
<path d="M7.21249 21.2612C8.69276 21.2612 9.89275 20.0612 9.89275 18.5809C9.89275 17.1006 8.69276 15.9006 7.21249 15.9006C5.73222 15.9006 4.53223 17.1006 4.53223 18.5809C4.53223 20.0612 5.73222 21.2612 7.21249 21.2612Z" fill="#F57156"/>
<path d="M20.8303 15.9026C21.3608 15.9026 21.8794 16.0599 22.3205 16.3547C22.7616 16.6494 23.1054 17.0683 23.3084 17.5585C23.5114 18.0486 23.5646 18.5879 23.4611 19.1082C23.3576 19.6286 23.1021 20.1065 22.727 20.4816C22.3518 20.8568 21.8739 21.1122 21.3536 21.2157C20.8333 21.3192 20.294 21.2661 19.8039 21.0631C19.3138 20.8601 18.8947 20.5163 18.6 20.0752C18.3053 19.6341 18.1479 19.1155 18.1479 18.5849C18.1479 17.8735 18.4306 17.1913 18.9336 16.6882C19.4366 16.1852 20.1189 15.9026 20.8303 15.9026Z" fill="#F57156"/>
<path d="M17.6278 4.85962C17.6427 4.98839 17.6503 5.1179 17.6505 5.24753C17.6515 5.87351 17.4886 6.48885 17.178 7.0323C18.6357 7.72627 19.825 8.88009 20.5629 10.3162C21.3007 11.7523 21.5461 13.391 21.2613 14.9803C22.0163 15.0684 22.7237 15.3943 23.2813 15.9108C23.8136 13.6972 23.5362 11.3661 22.4993 9.33917C21.4623 7.31225 19.7343 5.72328 17.6278 4.85962ZM17.5514 20.1283C16.4699 20.7212 15.2565 21.032 14.0231 21.032C12.7898 21.032 11.5763 20.7212 10.4948 20.1283C10.1697 20.8166 9.63719 21.3859 8.9721 21.7562C10.4861 22.7027 12.2356 23.2046 14.0211 23.2046C15.8065 23.2046 17.5561 22.7027 19.07 21.7562C18.4061 21.3856 17.875 20.8163 17.5514 20.1283ZM10.8642 7.0323C10.5539 6.48946 10.391 5.87487 10.3917 5.24959C10.3918 5.11996 10.3994 4.99045 10.4144 4.86168C8.30778 5.72535 6.57978 7.31431 5.54286 9.34123C4.50594 11.3682 4.22855 13.6992 4.76085 15.9129C5.31847 15.3963 6.02587 15.0705 6.78085 14.9823C6.49559 13.3928 6.74075 11.7536 7.47858 10.317C8.21641 8.88051 9.406 7.72636 10.8642 7.0323Z" fill="#01D2B4"/>
</g>
<defs>
<clipPath id="clip0_61_3">
<rect width="28" height="28" fill="white"/>
</clipPath>
</defs>
</svg>
